<svg width="127" height="57" viewBox="0 0 127 57" fill="none" xmlns="http://www.w3.org/2000/svg">
<path d="M10.8566 0.000204786C11.3857 0.000204786 11.9072 0.000204786 12.4512 0.000204786C13.5614 0.000204786 14.6717 0.00830027 15.7819 0.0244912C17.4659 0.0487777 19.1499 0.0406822 20.834 0.0325867C27.9127 0.0649687 33.4267 0.445457 38.7544 6.07182C41.5114 10.2977 41.6232 14.8311 40.9898 19.8341C40.1776 21.9147 39.1568 23.5824 38.0093 25.501C38.0093 28.7392 38.0093 28.7392 39.4996 30.5607C39.9914 31.0221 40.4831 31.4916 40.9898 31.9774C39.9168 34.7137 38.5905 36.3166 36.519 38.2514C36.2582 38.4942 36.2582 38.4942 34.9393 39.7571C33.5385 40.8824 33.5385 40.8824 32.0482 40.8824C31.5564 38.7452 31.0646 36.608 30.558 34.406C28.0916 33.8151 25.7295 33.4589 23.2109 33.3374C22.8831 33.3212 22.8831 33.3212 21.2065 33.2322C20.5284 33.1998 19.8504 33.1674 19.15 33.135C18.7997 33.1188 18.7997 33.1188 17.0487 33.0298C15.3423 32.9488 13.636 32.8679 11.9296 32.7869C11.9296 36.527 11.9296 40.2672 11.9296 44.1206C30.3046 44.9059 30.3046 44.9059 35.7739 40.0729C36.0421 39.8462 36.0421 39.8462 37.3983 38.6966C41.2059 35.0699 42.8378 31.2083 44.6186 26.1243C46.243 21.7933 48.4039 19.2594 52.2637 17.0979C56.1161 15.4302 59.9982 15.0659 64.089 15.7864C66.5703 17.0169 66.5703 17.0169 68.5598 18.2151C68.5747 17.3326 68.5822 16.4583 68.5896 15.5516C68.6269 14.3778 68.6641 13.212 68.7014 12.0382C68.7014 11.7468 68.7014 11.7468 68.7163 10.2896C68.8281 7.25376 69.1857 4.94655 70.7878 2.40456C73.2243 0.234974 73.5746 0.162115 76.5253 0.275451C76.8233 0.283547 76.8233 0.283547 78.3509 0.33212C78.5819 0.340215 78.5819 0.340215 79.7368 0.404979C79.7964 5.9342 79.8337 11.4634 79.8635 16.9926C79.8709 18.8708 79.8858 20.757 79.9082 22.6352C79.9305 25.3391 79.9455 28.0511 79.9529 30.7631C79.9678 31.5969 79.9827 32.4307 79.9902 33.2888C79.9902 40.2591 78.783 45.7397 74.3197 50.9694C70.3258 54.8309 65.6612 56.3448 60.3633 56.2638C53.7465 55.4867 49.7005 52.3861 45.5352 46.865C45.2669 46.4926 44.9987 46.1202 44.7155 45.7397C45.8779 42.9225 47.4203 40.6557 49.1863 38.2514C49.7079 37.5228 50.2295 36.8023 50.7734 36.0575C51.2354 35.5151 51.69 34.9646 52.1668 34.406C52.6586 34.406 53.1504 34.406 53.6571 34.406C53.6869 34.6489 53.6869 34.6489 53.8509 35.8794C54.3799 39.1338 54.7748 41.2062 56.7792 43.7644C59.4692 45.2621 61.101 45.3916 64.089 44.9302C66.1381 43.473 67.4645 42.4529 68.5598 40.0729C68.8802 36.3327 68.9771 33.0136 67.5837 29.5487C65.6985 27.1201 64.4988 26.351 61.5779 26.0515C57.8373 26.4077 55.9745 27.6787 53.5528 30.7873C53.0312 31.5807 52.5171 32.3741 51.9806 33.1917C49.1938 37.3609 46.3101 41.3843 43.2699 45.3511C42.3311 46.5735 41.4146 47.8121 40.5279 49.0831C37.6665 53.0985 34.3581 55.0252 29.6936 55.6729C27.9947 55.77 26.3107 55.7862 24.6043 55.77C23.9933 55.7781 23.3749 55.7781 22.7415 55.7781C21.4524 55.7862 20.1708 55.7781 18.8817 55.77C16.9071 55.7538 14.9325 55.77 12.9579 55.7862C11.7061 55.7781 10.4468 55.7781 9.19496 55.77C8.6063 55.7781 8.01019 55.7862 7.40663 55.7862C3.33075 55.7295 3.33075 55.7295 1.72126 54.4181C0.00745098 51.9489 0.380018 48.8646 0.342762 45.8854C0.327859 45.173 0.312956 44.4606 0.298053 43.7239C0.268248 42.202 0.245894 40.68 0.22354 39.1581C0.193734 36.8832 0.149027 34.6165 0.0968675 32.3417C0.0149028 27.8973 -0.00745188 23.4609 0.0074508 19.0246C0.0074508 18.2879 0.00745134 17.5512 0 16.7902C0.00745134 14.6692 0.044708 12.5482 0.089416 10.4191C0.089416 9.77955 0.089416 9.1481 0.089416 8.48427C0.193735 5.24608 0.506691 3.90223 2.67503 1.6193C5.61086 0.218783 7.65998 -0.0078907 10.8566 0.000204786ZM11.9296 10.9291C11.9296 14.9364 11.9296 18.9436 11.9296 23.0723C14.0905 23.1371 16.2439 23.1857 18.4048 23.2181C19.0158 23.2423 19.6194 23.2585 20.2453 23.2828C23.8368 23.3314 26.1319 23.1371 29.0677 20.6437C29.8128 19.8341 29.8128 19.8341 29.9544 17.0979C29.8128 14.1673 29.8128 14.1673 28.3226 11.7387C26.2213 10.9696 24.9471 10.832 22.7713 10.8482C22.1379 10.8482 21.512 10.8482 20.8563 10.8563C20.2006 10.8643 19.5449 10.8643 18.8668 10.8724C18.5389 10.8805 18.5389 10.8805 16.8549 10.8886C15.2156 10.8967 13.5689 10.9129 11.9296 10.9291Z" fill="#FBFBFB"/>
<path d="M91.2191 0C91.7854 0.00809549 92.3592 0.0242865 92.9404 0.0323819C93.5365 0.0323819 94.1326 0.0323819 94.7436 0.0242865C95.9954 0.0242865 97.2547 0.0404774 98.5065 0.0566684C100.414 0.0890504 102.314 0.0728594 104.222 0.0566684C105.444 0.0647639 106.666 0.0728594 107.895 0.0809549C108.454 0.0809549 109.02 0.0728594 109.602 0.0728594C114.594 0.186196 118.61 1.82958 122.135 5.75589C124.847 10.4108 125.48 14.499 124.832 19.9716C124.065 22.2545 123.215 23.655 121.852 25.6384C121.114 25.9056 120.376 26.1727 119.616 26.448C119.616 26.9823 119.616 27.5166 119.616 28.0671C120.048 28.2532 120.481 28.4314 120.92 28.6256C124.169 30.6819 125.644 33.3534 126.606 37.223C127.336 41.5379 126.933 45.1404 124.773 48.8967C122.157 52.5478 119.281 54.6526 115.145 55.5917C114.02 55.705 112.895 55.786 111.77 55.8508C111.122 55.8831 110.481 55.9155 109.81 55.9479C109.467 55.9641 109.467 55.9641 107.739 56.0451C107.038 56.0774 106.345 56.1098 105.623 56.1503C89.714 56.8627 89.714 56.8627 86.0852 54.7822C83.8572 52.2159 83.5666 50.4106 83.5517 46.9295C83.5368 46.0067 83.5293 45.0757 83.5219 44.1204C83.5219 43.1247 83.5219 42.1289 83.5293 41.1008C83.5219 40.0727 83.5219 39.0445 83.5144 37.984C83.507 35.8063 83.507 33.6367 83.5144 31.4591C83.5293 28.6823 83.5144 25.8975 83.4921 23.1207C83.4697 20.4573 83.4772 17.802 83.4772 15.1386C83.4697 14.1428 83.4623 13.1471 83.4548 12.127C83.4623 11.1961 83.4697 10.2651 83.4772 9.30981C83.4772 8.49217 83.4772 7.67452 83.4772 6.84069C84.3043 1.84577 86.6887 0.0890504 91.2191 0ZM95.7719 11.0665C95.146 13.6166 94.9299 15.8591 94.9374 18.5063C94.9299 19.2187 94.9299 19.9311 94.9299 20.6597C95.0268 22.4002 95.0268 22.4002 95.7719 23.2098C97.8136 23.3312 99.8254 23.396 101.875 23.4121C102.433 23.4283 103 23.4445 103.581 23.4607C107.225 23.4931 109.795 23.0559 112.91 20.7811C113.797 18.0448 113.797 18.0448 113.655 15.1143C112.142 12.7666 110.973 11.2689 108.298 10.7427C106.39 10.6699 104.52 10.7103 102.62 10.8156C101.957 10.8318 101.301 10.848 100.623 10.8641C99.0058 10.9127 97.3888 10.9856 95.7719 11.0665ZM95.0268 33.7339C94.9523 35.3368 94.9299 36.9397 94.9374 38.5426C94.9299 39.4169 94.9299 40.2912 94.9299 41.1898C95.0268 43.4485 95.0268 43.4485 95.7719 45.0676C98.3203 45.1161 100.861 45.1404 103.41 45.1647C103.767 45.1728 103.767 45.1728 105.593 45.2052C105.943 45.2133 105.943 45.2133 107.709 45.2214C108.029 45.2295 108.029 45.2295 109.646 45.2538C111.584 45.0514 112.768 44.5737 114.4 43.4485C115.54 40.9794 115.324 38.8826 115.145 36.1625C113.782 34.0415 112.977 33.7582 110.675 32.9243C109.527 32.8515 108.372 32.8191 107.225 32.8191C106.561 32.811 105.898 32.811 105.22 32.811C104.527 32.8191 103.842 32.8191 103.134 32.8191C102.433 32.8191 101.74 32.8191 101.025 32.811C100.697 32.811 100.697 32.811 99.0281 32.8191C98.7226 32.8191 98.7226 32.8191 97.1877 32.8191C95.7719 32.9243 95.7719 32.9243 95.0268 33.7339Z" fill="#F2994A"/>
</svg>
